<svg id="Layer_1" data-name="Layer 1" xmlns="http://www.w3.org/2000/svg" viewBox="0 0 1179 512"><defs><style>.cls-1{fill:#f76c6c;}.cls-2{fill:#9e4646;}.cls-3,.cls-9{fill:#fff;}.cls-4{fill:#d0d1d3;}.cls-5{fill:#374785;}.cls-6{fill:#ffc61b;}.cls-7{fill:#eaa22f;}.cls-8{fill:none;}.cls-9{isolation:isolate;font-size:300px;font-family:ArialRoundedMTBold, Arial Rounded MT Bold;}</style></defs><title>Artboard 1</title><circle class="cls-1" cx="256" cy="256" r="256"/><path class="cls-2" d="M221.9,402.7l97.4,101.4C430.1,475.9,512,375.5,512,256a255.87,255.87,0,0,0-2.4-35.2L398.2,109.5l-2.9,4.3H352l-2.6-2.6-1.6,2.6h-9.2v15l-25.7,41.9L339,196.8l-38.6,56.8L275.8,229l-91.2,14.5,68.1,70.2v10.4l-.8,1.2.8.8v75.8Z"/><path class="cls-3" d="M361.2,166.3a105.2,105.2,0,0,1-210.4,0Z"/><path class="cls-4" d="M361.2,166.3H256.6V271.4A105.18,105.18,0,0,0,361.2,166.3Z"/><polygon class="cls-5" points="288.3 229.5 280.6 225.6 338.7 109.5 398.2 109.5 398.2 118.1 344 118.1 288.3 229.5"/><path class="cls-6" d="M355.2,201.3H156.8a105.1,105.1,0,0,0,92.3,69.9V390.7H226.3a6.81,6.81,0,0,0-6.8,6.8h0a6.81,6.81,0,0,0,6.8,6.8h59.2a6.8,6.8,0,0,0,0-13.6H262.7V271.2A105.4,105.4,0,0,0,355.2,201.3Z"/><path class="cls-7" d="M355.2,201.3H256.6V404.4h29a6.8,6.8,0,0,0,0-13.6H262.8V271.2A105.38,105.38,0,0,0,355.2,201.3Z"/><rect class="cls-8" x="546" y="237.3" width="395" height="109"/><text class="cls-9" transform="translate(534 362.36)">mixr</text></svg>