<svg width="401" height="701" viewBox="0 0 401 701" fill="none" xmlns="http://www.w3.org/2000/svg">
<path fill-rule="evenodd" clip-rule="evenodd" d="M124.38 0.301424H382.731C382.731 0.301424 406.507 59.2277 399.621 133.035H399.638C396.811 163.394 388.837 196.306 371.44 228.512C264.591 431.576 309.824 627.961 319.175 650.879C322.872 659.949 326.859 667.878 330.846 674.993C329.179 676.622 327.004 678.252 324.394 679.772C313.811 685.964 296.051 691.232 273.652 694.87L269.52 695.522C268.831 695.631 268.125 695.726 267.418 695.821C266.711 695.916 266.004 696.011 265.316 696.12C263.938 696.337 262.489 696.554 261.039 696.717C257.414 697.151 253.717 697.586 249.875 697.966C248.353 698.129 246.758 698.292 245.236 698.401C244.439 698.509 243.714 698.563 242.916 698.618C240.597 698.835 238.205 698.998 235.813 699.161C233.42 699.324 231.028 699.487 228.564 699.595C227.793 699.622 227.006 699.661 226.21 699.7C225.358 699.742 224.496 699.785 223.634 699.813C218.705 700.03 213.631 700.193 208.484 700.247C205.947 700.301 203.337 700.301 200.728 700.301C163.468 700.301 129.761 696.554 105.405 690.417C105.078 690.336 104.77 690.254 104.462 690.173C104.154 690.091 103.846 690.01 103.52 689.928L99.823 688.951L98.0833 688.462C97.504 688.245 96.9248 688.082 96.3456 687.919L96.3435 687.919C96.0534 687.837 95.7815 687.742 95.5096 687.647C95.2379 687.552 94.9661 687.457 94.6763 687.376C94.3863 687.294 94.1145 687.199 93.8426 687.104C93.5708 687.009 93.299 686.914 93.009 686.833C92.7556 686.751 92.4841 686.656 92.2125 686.561C91.9404 686.466 91.6682 686.371 91.4143 686.29C91.0677 686.192 90.7471 686.075 90.4368 685.962C90.2279 685.886 90.0237 685.812 89.8195 685.746C89.3149 685.548 88.8104 685.356 88.3111 685.166C87.3041 684.783 86.3185 684.408 85.3977 684.008C85.2403 683.941 85.0898 683.879 84.9442 683.819C84.6204 683.685 84.3204 683.561 84.0204 683.411C83.8029 683.302 83.5854 683.207 83.368 683.112C83.1505 683.017 82.933 682.922 82.7156 682.814C82.4982 682.705 82.2809 682.61 82.0635 682.515C81.846 682.42 81.6284 682.325 81.4108 682.216C81.1027 682.101 80.831 681.958 80.5442 681.808C80.4261 681.746 80.3053 681.682 80.1784 681.619C79.816 681.456 79.3811 681.239 79.0186 681.021C78.2216 680.641 77.497 680.207 76.7725 679.773L76.7715 679.772C76.5902 679.664 76.4271 679.555 76.264 679.446C76.1009 679.338 75.9378 679.229 75.7566 679.121C75.5755 679.012 75.4125 678.903 75.2495 678.795C75.0863 678.686 74.9231 678.578 74.7418 678.469C74.5968 678.36 74.4337 678.252 74.2706 678.143C74.1075 678.034 73.9444 677.926 73.7994 677.817L72.9295 677.165C72.2552 676.66 71.668 676.122 71.1004 675.602C70.9358 675.452 70.7728 675.302 70.6099 675.156C74.6693 668.041 78.6562 660.166 82.3531 651.042C91.7042 628.124 140.272 436.681 30.0885 228.674C12.9811 196.36 4.93474 163.448 2.10767 133.035H2.09078C-4.7232 59.282 19.2707 0.301424 19.2707 0.301424H74.3624H78.2188H103.364L119.346 0.301361L124.38 0.301424Z" fill="#8DC1DD" fill-opacity="0.7"/>
</svg>
