<svg width="401" height="501" viewBox="0 0 401 501" fill="none" xmlns="http://www.w3.org/2000/svg">
<path fill-rule="evenodd" clip-rule="evenodd" d="M124.38 0.301406H382.731C382.731 0.301406 406.507 42.3916 399.621 95.1109H399.638C396.811 116.796 388.837 140.305 371.44 163.309C264.591 308.355 309.824 448.629 319.175 465C322.872 471.478 326.859 477.142 330.846 482.224C329.179 483.388 327.004 484.552 324.394 485.638C313.811 490.06 296.051 493.823 273.652 496.422L269.52 496.888C268.831 496.965 268.125 497.033 267.418 497.101C266.711 497.169 266.004 497.237 265.316 497.314C263.938 497.47 262.489 497.625 261.039 497.741C257.414 498.051 253.717 498.362 249.875 498.633C248.353 498.75 246.758 498.866 245.236 498.944C244.439 499.021 243.714 499.06 242.916 499.099C240.598 499.254 238.208 499.37 235.818 499.486L235.813 499.487L235.807 499.487C233.417 499.603 231.027 499.72 228.564 499.797C227.793 499.816 227.006 499.844 226.21 499.872C225.358 499.902 224.496 499.932 223.634 499.952C218.705 500.108 213.631 500.224 208.484 500.263C205.947 500.301 203.337 500.301 200.728 500.301C163.468 500.301 129.761 497.625 105.405 493.241C105.078 493.183 104.77 493.125 104.462 493.067C104.154 493.008 103.846 492.95 103.52 492.892L99.823 492.194L98.0833 491.845C97.5034 491.689 96.9234 491.573 96.3435 491.457C96.0536 491.398 95.7817 491.331 95.5099 491.263C95.2381 491.195 94.9662 491.127 94.6763 491.069C94.3863 491.011 94.1145 490.943 93.8426 490.875C93.5708 490.807 93.299 490.739 93.009 490.681C92.7553 490.623 92.4835 490.555 92.2116 490.487C91.9398 490.419 91.668 490.351 91.4143 490.293C91.0676 490.223 90.7469 490.14 90.4366 490.059C90.2278 490.005 90.0236 489.952 89.8195 489.905C89.3149 489.764 88.8104 489.626 88.3112 489.491C87.3041 489.217 86.3185 488.949 85.3977 488.664C85.2406 488.616 85.0904 488.571 84.945 488.528C84.6209 488.433 84.3206 488.344 84.0204 488.237C83.8029 488.159 83.5854 488.091 83.368 488.024C83.1505 487.956 82.933 487.888 82.7156 487.81C82.4981 487.733 82.2806 487.665 82.0632 487.597C81.8457 487.529 81.6282 487.461 81.4108 487.383C81.1027 487.301 80.831 487.199 80.5442 487.092C80.426 487.047 80.3053 487.002 80.1784 486.957C79.816 486.84 79.3811 486.685 79.0186 486.53C78.2213 486.258 77.4963 485.948 76.7715 485.638C76.5902 485.56 76.4271 485.483 76.264 485.405C76.1009 485.327 75.9378 485.25 75.7566 485.172C75.5754 485.095 75.4123 485.017 75.2492 484.939C75.0861 484.862 74.923 484.784 74.7418 484.707C74.5968 484.629 74.4337 484.552 74.2706 484.474C74.1075 484.396 73.9444 484.319 73.7994 484.241L72.9295 483.776C72.2553 483.415 71.6681 483.031 71.1005 482.659C70.9358 482.552 70.7729 482.445 70.6099 482.34C74.6693 477.259 78.6562 471.634 82.3531 465.116C91.7042 448.746 140.272 312.001 30.0885 163.425C12.9811 140.343 4.93474 116.835 2.10767 95.1109H2.09078C-4.7232 42.4304 19.2707 0.301406 19.2707 0.301406H74.3624H78.2188H103.364L119.346 0.301361L124.38 0.301406Z" fill="#fd9f21
" fill-opacity="0.8"/>
</svg>
