<svg width="29" height="31" viewBox="0 0 29 31" fill="none" xmlns="http://www.w3.org/2000/svg">
<path fill-rule="evenodd" clip-rule="evenodd" d="M17.6216 19.6764C13.1861 19.5457 9.64266 15.7737 9.77797 11.1842C9.91327 6.5947 13.6727 3.03805 18.1082 3.16881C22.5437 3.29957 26.0871 7.07152 25.9518 11.661C25.8165 16.2505 22.057 19.8072 17.6216 19.6764ZM10.1748 18.0714C8.61332 16.2058 7.70093 13.7678 7.77884 11.1253C7.94577 5.46273 12.5968 1.00546 18.1672 1.16968C23.7375 1.3339 28.1179 6.05743 27.9509 11.72C27.784 17.3825 23.133 21.8398 17.5626 21.6756C15.3062 21.609 13.2451 20.7944 11.6023 19.4723L1.65317 29.7857L0.213767 28.3971L10.1748 18.0714Z" fill="black"/>
</svg>
