<svg width="39" height="38" viewBox="0 0 39 38" fill="none" xmlns="http://www.w3.org/2000/svg">
<path d="M18.8764 0.921757C19.1009 0.230774 20.0785 0.230776 20.303 0.921759L24.3606 13.4099C24.461 13.7189 24.749 13.9281 25.0739 13.9281H38.2047C38.9312 13.9281 39.2333 14.8578 38.6455 15.2849L28.0225 23.0029C27.7596 23.1939 27.6497 23.5324 27.7501 23.8415L31.8077 36.3296C32.0322 37.0205 31.2413 37.5951 30.6536 37.1681L20.0305 29.45C19.7677 29.259 19.4117 29.259 19.1489 29.45L8.52585 37.1681C7.93807 37.5951 7.14721 37.0205 7.37172 36.3296L11.4294 23.8415C11.5298 23.5324 11.4198 23.1939 11.1569 23.0029L0.533886 15.2849C-0.0538996 14.8578 0.248184 13.9281 0.974726 13.9281H14.1055C14.4304 13.9281 14.7184 13.7189 14.8188 13.4099L18.8764 0.921757Z" fill="black"/>
</svg>
