<svg width="470" height="501" viewBox="0 0 470 501" fill="none" xmlns="http://www.w3.org/2000/svg">
<path fill-rule="evenodd" clip-rule="evenodd" d="M451.881 110.511C463.685 75.5897 469.76 38.1615 469.76 0.363306L0 0.363281C-2.69655e-06 38.1615 6.07535 75.5896 17.8792 110.511C29.683 145.432 46.9842 177.162 68.7948 203.889C90.6055 230.616 116.498 251.818 144.995 266.283C169.229 278.583 194.942 285.807 221.062 287.694L213.132 492.769H237.945C161.016 492.786 98.8413 494.48 98.8413 496.566C98.8413 498.663 161.629 500.363 239.082 500.363C316.534 500.363 379.322 498.663 379.322 496.566C379.322 494.48 317.147 492.786 240.218 492.769H256.629L248.671 287.696C274.8 285.813 300.523 278.588 324.765 266.283C353.262 251.818 379.155 230.617 400.966 203.889C422.776 177.162 440.077 145.432 451.881 110.511Z" fill="#8DC1DD" fill-opacity="0.7"/>
</svg>
