<svg width="401" height="701" viewBox="0 0 401 701" fill="none" xmlns="http://www.w3.org/2000/svg">
<path fill-rule="evenodd" clip-rule="evenodd" d="M385.536 134.632C395.587 92.0634 400.76 46.4389 400.76 0.363312L0.760498 0.363281C0.760496 46.4389 5.93365 92.0633 15.9846 134.632C26.0355 177.2 40.7674 215.879 59.3391 248.459C77.9109 281.039 99.9587 306.883 124.224 324.516C144.836 339.493 166.704 348.297 188.92 350.608L182.242 691.129H203.097C137.718 691.155 84.9236 693.212 84.9236 695.746C84.9236 698.296 138.387 700.363 204.338 700.363C270.289 700.363 323.752 698.296 323.752 695.746C323.752 693.212 270.958 691.155 205.579 691.129H219.279L212.578 350.611C234.801 348.303 256.678 339.499 277.297 324.516C301.562 306.883 323.61 281.039 342.182 248.459C360.754 215.879 375.485 177.2 385.536 134.632Z" fill="#8DC1DD" fill-opacity="0.7"/>
</svg>
