<?xml version="1.0" encoding="utf-8"?>
<!-- Generator: Adobe Illustrator 23.0.2, SVG Export Plug-In . SVG Version: 6.00 Build 0)  -->
<svg version="1.1" id="Layer_1" xmlns="http://www.w3.org/2000/svg" xmlns:xlink="http://www.w3.org/1999/xlink" x="0px" y="0px"
	 viewBox="0 0 365.6 440.6" style="enable-background:new 0 0 365.6 440.6;" xml:space="preserve">
<style type="text/css">
	.st0{fill:#FFFFFF;stroke:#231F20;stroke-width:7;stroke-linecap:round;stroke-miterlimit:10;}
	.st1{fill:#231F20;}
	.st2{fill:#C93963;}
	.st3{fill:#FFFFFF;stroke:#231F20;stroke-width:4;stroke-miterlimit:10;}
	.st4{fill:#FFFFFF;stroke:#231F20;stroke-width:4;stroke-linecap:round;stroke-linejoin:round;}
	.st5{fill:none;stroke:#231F20;stroke-width:4;stroke-linecap:round;stroke-linejoin:round;}
</style>
<title>Asset 1</title>
<g id="Layer_2-2">
	<circle class="st0" cx="96.3" cy="278" r="92.8"/>
	<g transform="translate(112.57 251.73) scale(0.1)">
		
			<image style="overflow:visible;enable-background:new    ;" width="564" height="598" id="image" xlink:href="929B3B5.png"  transform="matrix(0.1 0 0 0.1 112.57 251.73)">
		</image>
	</g>
	<g transform="translate(58.35 283.02) rotate(-129) scale(0.1)">
		
			<image style="overflow:visible;enable-background:new    ;" width="564" height="598" xlink:href="929B3B7.png"  transform="matrix(-6.293204e-02 -7.771460e-02 7.771460e-02 -6.293204e-02 58.35 283.02)">
		</image>
	</g>
	<path class="st1" d="M30.6,316.9c1.2,1.1,42.9,27.9,62.5,34.7c9.1,3.1,18.1-3,17.3-11.8c-1.3-14.7-6.5-34.8-23.7-44.9
		c-15.9-9.2-33.8-8.6-46.8-6.2c-5,0.8-9.6,3.2-13,6.9C22.8,300.3,20.3,307.7,30.6,316.9z"/>
	<path class="st2" d="M32.2,314.4c8.9,6.8,32.9,23.2,51.9,29.7c2,0.7,4.1-0.8,3.8-2.8c-0.5-2.7-2.5-7-8.5-13.6
		C69,316.6,45.8,307.3,34,309.1C31.6,309.4,30.2,312.9,32.2,314.4z"/>
	<circle class="st3" cx="123.1" cy="75.8" r="17.2"/>
	<circle class="st3" cx="176.2" cy="137.9" r="10.5"/>
	<circle class="st3" cx="112.2" cy="156.9" r="8.4"/>
	<polygon class="st4" points="94.6,122.9 86.4,121.4 80.5,127.4 79.4,119.1 71.9,115.4 79.4,111.7 80.6,103.5 86.4,109.5 
		94.7,108.1 90.8,115.5 	"/>
	<polygon class="st4" points="222.4,80 210.5,77.9 202,86.6 200.3,74.6 189.5,69.2 200.4,63.9 202.1,51.9 210.6,60.6 222.5,58.6 
		216.8,69.3 	"/>
	<polygon class="st4" points="149.6,21.4 141.4,20 135.5,25.9 134.3,17.7 126.9,13.9 134.4,10.3 135.6,2 141.4,8 149.6,6.6 
		145.7,14 	"/>
	<line class="st5" x1="198.4" y1="185.1" x2="198.4" y2="191.4"/>
	<line class="st5" x1="198.4" y1="198.1" x2="198.4" y2="204.3"/>
	<line class="st5" x1="202.7" y1="195.2" x2="208.9" y2="195.2"/>
	<line class="st5" x1="188.5" y1="195.2" x2="194.7" y2="195.2"/>
	<line class="st5" x1="71.6" y1="39.4" x2="71.6" y2="45.6"/>
	<line class="st5" x1="71.6" y1="52.3" x2="71.6" y2="58.6"/>
	<line class="st5" x1="75.9" y1="49.4" x2="82.1" y2="49.4"/>
	<line class="st5" x1="61.7" y1="49.4" x2="67.9" y2="49.4"/>
</g>
</svg>
